<svg width="347" height="334" viewBox="0 0 347 334" fill="none" xmlns="http://www.w3.org/2000/svg">
<mask id="mask0" mask-type="alpha" maskUnits="userSpaceOnUse" x="89" y="83" width="251" height="251">
<path d="M214.304 333.447C283.336 333.447 339.297 277.486 339.297 208.455C339.297 139.423 283.336 83.4615 214.304 83.4615C145.272 83.4615 89.311 139.423 89.311 208.455C89.311 277.486 145.272 333.447 214.304 333.447Z" fill="#4285F4"/>
</mask>
<g mask="url(#mask0)">
<path d="M215.117 333.447C284.149 333.447 340.11 277.486 340.11 208.455C340.11 139.423 284.149 83.4615 215.117 83.4615C146.085 83.4615 90.124 139.423 90.124 208.455C90.124 277.486 146.085 333.447 215.117 333.447Z" fill="#4285F4"/>
<path d="M238.558 219.947C232.138 219.947 226.035 219.313 220.407 218.203C208.28 215.746 198.452 210.753 192.032 203.857C184.978 196.248 182.283 186.737 184.423 176.196C188.465 156.143 206.854 135.773 239.112 115.799C262.811 101.057 285.717 91.9424 285.876 91.8631C287.54 91.229 289.363 92.0216 289.997 93.6068C290.631 95.192 289.839 97.0943 288.254 97.7283C287.382 98.0454 199.403 133.395 190.605 177.384C186.642 197.358 204.08 208.296 221.675 211.942C226.986 213.051 232.692 213.606 238.716 213.606C280.724 213.606 336.444 186.024 351.265 115.799C351.662 114.056 353.326 113.025 354.99 113.342C356.734 113.739 357.765 115.403 357.448 117.068C341.913 190.938 283.022 219.947 238.558 219.947Z" fill="#D7EFFE"/>
<path d="M280.011 385.125C279.694 385.125 279.456 385.046 279.139 384.966C243.551 371.492 228.729 346.208 222.626 327.265C214.938 303.646 216.92 275.905 227.461 259.736C240.381 240.079 269.231 230.251 313.379 230.568C345.876 230.806 375.043 236.75 375.281 236.83C376.549 237.067 377.421 238.335 377.104 239.604C376.866 240.872 375.598 241.744 374.33 241.427C373.22 241.189 260.116 218.441 231.424 262.272C223.419 274.557 218.584 299.683 227.065 325.759C232.93 343.672 246.959 367.688 280.724 380.449C281.992 380.924 282.547 382.272 282.071 383.54C281.834 384.57 280.962 385.125 280.011 385.125Z" fill="#D7EFFE"/>
<path d="M188.782 368.48C188.703 368.48 188.623 368.48 188.544 368.48C186.8 368.322 185.532 366.816 185.691 365.072C188.861 327.661 164.925 308.48 143.762 291.519C133.775 283.514 124.344 275.984 119.033 267.265C107.382 248.401 108.809 229.775 123.392 208.851C128.307 201.796 133.379 196.169 137.897 191.255C149.707 178.256 159.059 167.952 159.297 139.181C159.852 71.1762 162.943 34.8751 162.943 34.5581C163.102 32.8144 164.608 31.4669 166.351 31.6255C168.095 31.784 169.363 33.2899 169.205 35.0336C169.205 35.4299 166.193 71.4932 165.559 139.26C165.321 170.41 154.7 182.061 142.494 195.535C137.897 200.608 133.221 205.759 128.544 212.497C115.387 231.36 114.04 247.212 124.344 263.936C129.099 271.704 138.135 278.916 147.646 286.525C168.888 303.566 195.36 324.729 191.873 365.548C191.794 367.212 190.446 368.48 188.782 368.48Z" fill="#D7EFFE"/>
</g>
<path d="M175.942 274.002C172.376 274.002 168.967 272.734 166.272 270.357C163.34 267.741 161.517 264.174 161.279 260.211C160.724 252.127 166.907 245.073 174.991 244.518C183.076 243.963 190.13 250.145 190.685 258.23C190.922 262.193 189.654 265.997 187.039 268.93C184.423 271.862 180.856 273.685 176.893 273.923C176.656 274.002 176.339 274.002 175.942 274.002ZM176.021 250.859C175.863 250.859 175.625 250.859 175.467 250.859C170.87 251.176 167.303 255.218 167.62 259.815C167.778 262.034 168.809 264.095 170.473 265.601C172.138 267.107 174.357 267.82 176.576 267.662C178.796 267.503 180.856 266.473 182.362 264.808C183.868 263.144 184.582 260.925 184.423 258.705C184.106 254.267 180.381 250.859 176.021 250.859Z" fill="#D7EFFE"/>
<path d="M21.7602 153.426C11.5462 163.796 8.43115 204.508 8.43115 204.508C8.43115 204.508 49.2042 200.646 59.4182 190.289C69.6312 179.919 69.4692 163.269 59.0792 153.088C48.6892 142.907 31.9732 143.055 21.7602 153.426Z" fill="#F86734"/>
<path d="M36.0091 97.4682L61.7741 98.0488L89.3801 70.0297L61.4891 70.3943C60.0131 70.3673 58.5771 70.9344 57.5481 71.9877L34.9801 94.9026C34.0321 95.8478 34.6821 97.4412 36.0091 97.4682Z" fill="#66DB7B"/>
<path d="M116.784 178.123L115.728 152.453L143.484 124.448V152.237C143.538 153.709 142.996 155.141 141.953 156.194L119.385 179.109C118.451 180.067 116.839 179.446 116.784 178.123Z" fill="#66DB7B"/>
<path d="M173.23 43.9012C173.23 41.6462 171.361 39.8233 169.098 39.8638L122.826 40.6334C120.333 40.4174 117.773 41.2681 115.876 43.1856L28.9931 131.227C25.6471 134.629 25.6881 140.098 29.1011 143.433L71.7441 185.158C75.1571 188.494 80.6431 188.453 83.9891 185.05L170.873 97.0094C172.756 95.0919 173.569 92.5263 173.298 90.0417L173.23 43.9012Z" fill="#EFF7CF"/>
<path d="M61.7661 269.21C61.7661 273.504 58.2841 276.986 53.9901 276.986C49.6951 276.986 46.2131 273.504 46.2131 269.21C46.2131 264.915 49.6951 261.433 53.9901 261.433C58.2841 261.433 61.7661 264.915 61.7661 269.21Z" fill="#F6DA00"/>
<path d="M7.776 248.102C7.776 250.249 6.035 251.99 3.888 251.99C1.741 251.99 0 250.249 0 248.102C0 245.955 1.741 244.214 3.888 244.214C6.035 244.214 7.776 245.955 7.776 248.102Z" fill="#F6DA00"/>
<path fill-rule="evenodd" clip-rule="evenodd" d="M316.131 68.2337C316.114 68.2034 316.079 68.1437 316.044 68.083C318.258 66.8064 320.78 65.3495 323.388 63.8436C331.682 59.053 340.836 53.7657 343.647 52.2055L343.678 52.1887C345.108 54.6623 345.951 57.5158 345.972 60.4813L346.582 127.679C346.615 131.643 344.533 135.299 341.133 137.299L282.784 170.945C280.291 172.423 277.605 173.288 274.913 173.513V173.514C272.016 173.736 269.104 173.162 266.416 171.654L210.649 140.205C205.453 137.286 202.218 131.83 202.16 125.868L201.583 61.8693C201.555 59.0294 202.197 56.1643 203.422 53.6071L231.205 69.0878C230.453 70.6486 230.057 72.4051 230.081 74.1218L230.42 112.871C230.465 116.507 232.414 119.808 235.569 121.569L269.37 140.621C271.019 141.522 272.761 141.885 274.537 141.746L274.885 171.158L274.548 141.699C276.186 141.599 277.794 141.034 279.307 140.162L314.637 119.789C316.693 118.603 317.954 116.388 317.935 113.984L317.541 73.254C317.513 71.4609 317.003 69.7421 316.131 68.2337Z" fill="#1769E0"/>
<path d="M316.044 55.5228C316.079 55.5835 316.114 55.6432 316.131 55.6735C317.003 57.1819 317.513 58.9007 317.541 60.6938L317.935 101.424C317.954 103.827 316.693 106.042 314.637 107.228L279.307 127.602C277.794 128.474 276.186 129.039 274.548 129.138L274.912 160.953C277.605 160.728 280.291 159.863 282.784 158.385L341.133 124.739C344.533 122.738 346.615 119.083 346.582 115.119L345.972 47.9211C345.951 44.9556 345.108 42.1021 343.678 39.6285L343.647 39.6453C339.953 41.6959 325.3 50.1853 316.044 55.5228Z" fill="#073042"/>
<path d="M274.537 129.185C272.761 129.325 271.019 128.961 269.37 128.061L235.569 109.009C232.414 107.248 230.465 103.947 230.42 100.311L230.081 61.5616C230.057 59.8449 230.453 58.0884 231.205 56.5276L203.422 41.0469C202.197 43.6041 201.555 46.4692 201.583 49.3091L202.16 113.308C202.218 119.269 205.453 124.726 210.649 127.645L266.416 159.094C269.104 160.602 272.016 161.176 274.913 160.954L274.537 129.185Z" fill="#3DDC84"/>
<path d="M203.438 41.0774L231.221 56.5582C232.03 54.8854 233.288 53.4356 234.874 52.481L268.511 33.0853C271.639 31.2409 275.484 31.1959 278.61 32.9743L312.41 52.0267C313.916 52.8882 315.177 54.092 316.044 55.5229C325.253 50.1729 339.922 41.7139 343.618 39.6632L343.648 39.6454C342.169 37.1583 340.074 35.0679 337.483 33.5857L281.685 2.15309C276.488 -0.764271 270.14 -0.724489 265.003 2.31849L209.497 34.3247C206.823 35.9074 204.775 38.2951 203.438 41.0774Z" fill="#4285F4"/>
<path d="M274.639 113.035C275.352 112.945 276.044 112.747 276.745 112.424C277.004 112.314 277.246 112.174 277.519 112.017L301.203 98.3601C301.384 98.2554 301.535 98.1685 301.7 98.0335C302.179 97.6765 302.558 97.216 302.825 96.7009C303.022 96.345 303.143 95.9944 303.262 95.6437C303.365 95.2627 303.42 94.8691 303.396 94.4797L303.146 67.1861C303.137 65.9844 302.785 64.8183 302.21 63.8228C302.175 63.7621 302.123 63.6721 302.088 63.6113C301.517 62.6933 300.704 61.9156 299.702 61.3671L277.04 48.6058C276.909 48.52 276.766 48.4813 276.636 48.3954C276.363 48.2719 276.089 48.1473 275.803 48.0709C275.404 47.939 274.945 47.8417 274.502 47.7747C274.204 47.7464 273.905 47.7182 273.623 47.7192C273.42 47.7161 273.233 47.7422 273.048 47.7694C272.861 47.7967 272.627 47.8103 272.412 47.8542C272.333 47.8595 272.273 47.894 272.195 47.8993C271.515 48.0489 270.858 48.3075 270.223 48.6739L247.688 61.6685C247.264 61.9124 246.906 62.2003 246.565 62.5175C246.328 62.7341 246.139 62.9644 245.949 63.1947C245.863 63.3245 245.776 63.4543 245.69 63.5852C245.574 63.7328 245.506 63.8929 245.406 64.0709C245.351 64.1829 245.295 64.2959 245.238 64.409C245.115 64.6812 245.02 64.9366 244.896 65.2098C244.6 66.0242 244.465 66.9066 244.486 67.7796L244.705 93.7647C244.715 94.2012 244.743 94.6681 244.832 95.0994C244.96 95.6699 245.165 96.2351 245.431 96.7648C245.5 96.8862 245.571 97.0066 245.658 97.1573C245.745 97.3081 245.815 97.4295 245.932 97.5624C246.154 97.8765 246.424 98.2042 246.707 98.4837C246.772 98.5266 246.807 98.5872 246.872 98.6302C247.255 99.0122 247.711 99.3126 248.197 99.5963L270.859 112.358C271.523 112.739 272.255 112.96 272.996 113.056C273.296 113.084 273.595 113.113 273.877 113.111C274.032 113.102 274.158 113.11 274.314 113.101C274.422 113.079 274.53 113.057 274.639 113.035Z" fill="#D7EFFE"/>
<path d="M302.089 63.6134C302.124 63.6741 302.176 63.7642 302.211 63.8249C302.786 64.8203 303.137 65.9865 303.147 67.1881L303.397 94.4818C303.39 94.8879 303.366 95.2647 303.263 95.6458C303.16 96.0268 303.01 96.3942 302.825 96.703C302.541 97.1877 302.162 97.6483 301.7 98.0356C301.536 98.1706 301.385 98.2575 301.204 98.3622L277.519 112.019C277.277 112.159 277.005 112.316 276.745 112.426C276.075 112.731 275.353 112.947 274.638 113.037L274.43 120.56L274.538 129.188C276.157 129.059 277.784 128.523 279.296 127.651L314.625 107.279C316.665 106.062 317.925 103.847 317.924 101.473L317.577 60.7568C317.549 58.9626 317.07 57.2281 316.168 55.7364C316.133 55.6757 316.099 55.616 316.081 55.5857C311.574 58.1848 308.385 60.0638 308.385 60.0638L302.089 63.6134Z" fill="#041619"/>
<path d="M230.098 61.5911L230.437 100.341C230.464 103.946 232.414 107.248 235.586 109.039L269.386 128.092C271.005 129.009 272.778 129.354 274.553 129.216L274.428 120.557L274.637 113.034C274.529 113.056 274.421 113.079 274.312 113.101C274.157 113.11 274.001 113.12 273.875 113.111C273.593 113.112 273.294 113.084 272.996 113.055C272.255 112.959 271.553 112.721 270.858 112.357L248.195 99.5953C247.709 99.3127 247.284 98.9945 246.871 98.6291C246.806 98.5862 246.771 98.5266 246.706 98.4836C246.423 98.2042 246.171 97.9069 245.932 97.5625C245.844 97.4107 245.744 97.3081 245.657 97.1574C245.587 97.0359 245.518 96.9156 245.43 96.7648C245.163 96.2341 244.976 95.6992 244.83 95.0994C244.742 94.6671 244.683 94.218 244.703 93.7637L244.484 67.7796C244.463 66.9066 244.616 66.0535 244.894 65.2098C244.988 64.9544 245.113 64.6812 245.238 64.408C245.293 64.2959 245.349 64.1829 245.405 64.0698L239.152 60.9976L231.144 56.5624C230.471 58.1179 230.057 59.8451 230.098 61.5911Z" fill="#37BF6E"/>
<path d="M245.483 64.0646C245.581 63.8867 245.667 63.7569 245.767 63.579C245.853 63.4492 245.939 63.3194 246.025 63.1885C246.214 62.9593 246.435 62.7112 246.642 62.5112C246.983 62.1941 247.341 61.9073 247.765 61.6634L270.299 48.6687C270.934 48.3023 271.592 48.0438 272.271 47.893C272.349 47.8888 272.41 47.8543 272.487 47.8491C272.704 47.8051 272.89 47.7779 273.123 47.7643C273.31 47.7371 273.513 47.7402 273.7 47.713C273.981 47.7119 274.28 47.7412 274.579 47.7695C275.021 47.8365 275.432 47.9213 275.88 48.0657C276.166 48.1422 276.438 48.2657 276.712 48.3902C276.843 48.4761 276.986 48.5138 277.116 48.5996L299.778 61.3608C300.75 61.9271 301.564 62.7059 302.164 63.6062L308.426 59.9958C308.426 59.9958 311.632 58.1462 316.121 55.5177C315.255 54.0868 314.024 52.8652 312.488 52.0205L278.688 32.9692C275.532 31.2074 271.686 31.2524 268.587 33.0791L234.952 52.4758C233.336 53.4472 232.107 54.8802 231.299 56.553L239.308 60.9871L245.483 64.0646Z" fill="#3870B2"/>
</svg>
