<svg id="Layer_1" data-name="Layer 1" xmlns="http://www.w3.org/2000/svg" viewBox="0 0 600.87 398.69"><defs><style>.cls-1{fill:#fff;}.cls-1,.cls-2,.cls-3{stroke:#4285f4;stroke-miterlimit:10;stroke-width:4px;}.cls-2,.cls-4{fill:none;}.cls-3{fill:#d7effe;}.cls-5{fill:#3ddc84;}</style></defs><title>Machine learning</title><line class="cls-1" x1="362.65" y1="293.57" x2="224.08" y2="337.79"/><polyline class="cls-2" points="363.67 206.54 362.65 293.57 569.31 360.28"/><line class="cls-2" x1="433.3" y1="118.46" x2="482.54" y2="45.58"/><line class="cls-1" x1="433.3" y1="118.46" x2="199.14" y2="191.14"/><line class="cls-1" x1="433.3" y1="118.46" x2="363.67" y2="206.54"/><line class="cls-2" x1="305.91" y1="99.63" x2="433.3" y2="118.46"/><polyline class="cls-2" points="363.67 206.54 524.84 218.34 433.3 118.46"/><circle class="cls-3" cx="433.3" cy="118.46" r="10.44"/><line class="cls-1" x1="524.84" y1="218.34" x2="569.31" y2="360.28"/><polyline class="cls-2" points="224.08 252.65 363.67 206.54 569.31 360.28"/><circle class="cls-3" cx="363.67" cy="206.54" r="10.44"/><circle class="cls-3" cx="362.65" cy="293.57" r="10.44"/><line class="cls-2" x1="569.31" y1="360.28" x2="302.36" y2="355.95"/><circle class="cls-3" cx="569.31" cy="360.28" r="10.44"/><circle class="cls-3" cx="524.84" cy="218.34" r="10.44"/><circle class="cls-3" cx="486.94" cy="37.99" r="10.44"/><path class="cls-4" d="M175.28,276.51a23.87,23.87,0,1,1,23.86-23.87A23.89,23.89,0,0,1,175.28,276.51Z"/><path class="cls-5" d="M307.56,358.16V97.67h-.41A294.43,294.43,0,0,0,184.5,123.9L136.22,40.26A9.92,9.92,0,0,0,119,50.18l47.69,82.59C84.84,177.31,28.83,260.22,20.63,358.16ZM199.14,252.64a23.86,23.86,0,1,1-23.86-23.86A23.89,23.89,0,0,1,199.14,252.64Z"/></svg>